<svg width="17" height="17" viewBox="0 0 17 17" fill="none" xmlns="http://www.w3.org/2000/svg">
<path d="M6.00098 0.736218C7.33975 -0.245406 9.16025 -0.245405 10.499 0.736218L15.085 4.12294C15.9685 4.76248 16.494 5.78519 16.5 6.87587V13.0067C16.445 14.9112 14.9108 16.4273 13.0273 16.4804H3.48145C1.59444 16.4318 0.055014 14.9147 0 13.0067V6.87587C0.00604314 5.78519 0.531543 4.76248 1.41504 4.12294L6.00098 0.736218ZM4.3418 11.5048C3.98223 11.5049 3.69043 11.7965 3.69043 12.1561C3.69059 12.5156 3.98233 12.8073 4.3418 12.8075H12.1582C12.5177 12.8073 12.8094 12.5156 12.8096 12.1561C12.8096 11.7965 12.5178 11.5049 12.1582 11.5048H4.3418Z" fill="#335CFF"/>
</svg>
