<svg width="17" height="18" viewBox="0 0 17 18" fill="none" xmlns="http://www.w3.org/2000/svg">
<path fill-rule="evenodd" clip-rule="evenodd" d="M8.37667 8.74394e-07H8.29C7.54128 -2.25541e-05 6.91691 -4.20896e-05 6.42127 0.0665956C5.89811 0.136933 5.42577 0.291658 5.04622 0.671217C4.66666 1.05077 4.51193 1.52311 4.44159 2.04627C4.37496 2.54192 4.37498 3.16626 4.375 3.91499V3.97976C4.23129 3.98447 4.09247 3.9902 3.95833 3.99719V10.8333L6.69539 10.8333C6.86632 10.8333 7.05114 10.8332 7.20716 10.8542C7.38993 10.8787 7.62342 10.9419 7.81992 11.1384C8.01642 11.3349 8.07961 11.5684 8.10419 11.7512C8.12516 11.9072 8.12509 12.0921 8.12502 12.263V13.1537C8.12509 13.3246 8.12516 13.5095 8.10419 13.6655C8.07961 13.8483 8.01642 14.0818 7.81992 14.2783C7.62342 14.4748 7.38993 14.5379 7.20716 14.5625C7.05115 14.5835 6.86633 14.5834 6.69541 14.5834L3.95833 14.5834V17.2528C4.70384 17.2917 5.59367 17.2917 6.66667 17.2917H10C11.073 17.2917 11.9628 17.2917 12.7083 17.2528V3.99719C12.5742 3.9902 12.4354 3.98447 12.2917 3.97976V3.91501C12.2917 3.16628 12.2917 2.54192 12.2251 2.04627C12.1547 1.52311 12 1.05077 11.6205 0.671217C11.2409 0.291658 10.7686 0.136933 10.2454 0.0665956C9.74976 -4.20896e-05 9.12539 -2.25541e-05 8.37667 8.74394e-07ZM11.0417 3.95991V3.95834C11.0417 3.15499 11.0403 2.61536 10.9862 2.21283C10.9345 1.82828 10.8452 1.6637 10.7366 1.5551C10.628 1.4465 10.4634 1.35715 10.0788 1.30545C9.67631 1.25133 9.13668 1.25 8.33333 1.25C7.52999 1.25 6.99036 1.25133 6.58783 1.30545C6.20328 1.35715 6.0387 1.4465 5.9301 1.5551C5.8215 1.6637 5.73215 1.82828 5.68045 2.21283C5.62633 2.61536 5.625 3.15499 5.625 3.95834V3.95991C5.95169 3.95833 6.29839 3.95833 6.66667 3.95833H10C10.3683 3.95833 10.715 3.95833 11.0417 3.95991Z" fill="#335CFF"/>
<path d="M15.6904 16.3154C15.258 16.7477 14.7089 16.9886 13.9583 17.1228V4.12717C14.7089 4.26138 15.258 4.50227 15.6904 4.93464C16.6667 5.91096 16.6667 7.4823 16.6667 10.625C16.6667 13.7677 16.6667 15.339 15.6904 16.3154Z" fill="#335CFF"/>
<path d="M0.976311 4.93464C1.40868 4.50227 1.95776 4.26138 2.70833 4.12717V10.868C2.54154 10.9005 2.34742 10.9711 2.18011 11.1384C1.98361 11.3349 1.92042 11.5684 1.89584 11.7512C1.87487 11.9072 1.87494 12.092 1.87501 12.263V13.1537C1.87494 13.3246 1.87487 13.5095 1.89584 13.6655C1.92042 13.8483 1.98361 14.0818 2.18011 14.2783C2.34742 14.4456 2.54154 14.5162 2.70833 14.5487V17.1228C1.95776 16.9886 1.40868 16.7477 0.976311 16.3154C0 15.339 0 13.7677 0 10.625C0 7.4823 0 5.91096 0.976311 4.93464Z" fill="#335CFF"/>
<path d="M3.12598 12.0843C3.12504 12.1422 3.12502 12.2091 3.12502 12.2917V13.125C3.12502 13.2076 3.12504 13.2745 3.12598 13.3324C3.18386 13.3333 3.25078 13.3334 3.33335 13.3334H6.66668C6.74925 13.3334 6.81618 13.3333 6.87405 13.3324C6.87499 13.2745 6.87501 13.2076 6.87501 13.125V12.2917C6.87501 12.2091 6.87499 12.1422 6.87405 12.0843C6.81617 12.0834 6.74925 12.0833 6.66668 12.0833H3.33335C3.25078 12.0833 3.18386 12.0834 3.12598 12.0843Z" fill="#335CFF"/>
</svg>
